# xmcd
#
# Track frame offsets: 
#        150
#        11797
#        25160
#        39135
#        53047
#        66217
#        81082
#        95372
#        108597
#        117225
#        130430
#        141775
#
# Disc length: 2034 seconds
#
# Revision: 2
# Processed by: cddbd v1.5.2PL0 Copyright (c) Steve Scherf et al.
# Submitted via: ExactAudioCopy v0.90b4
#
DISCID=9c07f00c
DTITLE=Nat King Cole - His Golden Voice [CD2]
DYEAR=2000
DGENRE=Jazz
TTITLE0=Have Fun
TTITLE1=What Is This Thing Called Love
TTITLE2=If You Can't Smile, Answer Yes
TTITLE3=Come To Baby, Do
TTITLE4=It's Only A Paper Moon
TTITLE5=Firm Fram Sauce
TTITLE6=Call The Police
TTITLE7=Baby Ain't I Good For You
TTITLE8=I Got Rhythm
TTITLE9=It's Better To Be By Yourself
TTITLE10=I Can't Give You Anything
TTITLE11=Straighten Up And Fly Right
EXTD=
EXTT0=
EXTT1=
EXTT2=
EXTT3=
EXTT4=
EXTT5=
EXTT6=
EXTT7=
EXTT8=
EXTT9=
EXTT10=
EXTT11=
PLAYORDER=
